<?xml version="1.0" encoding="UTF-8" standalone="no"?>
<!-- Created with Inkscape (http://www.inkscape.org/) -->

<svg
   xmlns:dc="http://purl.org/dc/elements/1.1/"
   xmlns:cc="http://creativecommons.org/ns#"
   xmlns:rdf="http://www.w3.org/1999/02/22-rdf-syntax-ns#"
   xmlns:svg="http://www.w3.org/2000/svg"
   xmlns="http://www.w3.org/2000/svg"
   xmlns:sodipodi="http://sodipodi.sourceforge.net/DTD/sodipodi-0.dtd"
   xmlns:inkscape="http://www.inkscape.org/namespaces/inkscape"
   width="87.900368mm"
   height="76.608597mm"
   viewBox="0 0 87.900368 76.608597"
   version="1.1"
   id="svg8"
   inkscape:version="0.92.2 5c3e80d, 2017-08-06"
   sodipodi:docname="figura114_1.svg">
  <defs
     id="defs2" />
  <sodipodi:namedview
     id="base"
     pagecolor="#ffffff"
     bordercolor="#666666"
     borderopacity="1.0"
     inkscape:pageopacity="0.0"
     inkscape:pageshadow="2"
     inkscape:zoom="0.98994949"
     inkscape:cx="157.64507"
     inkscape:cy="89.901671"
     inkscape:document-units="mm"
     inkscape:current-layer="layer1"
     showgrid="false"
     fit-margin-top="5"
     fit-margin-left="5"
     fit-margin-right="5"
     fit-margin-bottom="5"
     inkscape:window-width="2048"
     inkscape:window-height="1107"
     inkscape:window-x="0"
     inkscape:window-y="1"
     inkscape:window-maximized="1" />
  <metadata
     id="metadata5">
    <rdf:RDF>
      <cc:Work
         rdf:about="">
        <dc:format>image/svg+xml</dc:format>
        <dc:type
           rdf:resource="http://purl.org/dc/dcmitype/StillImage" />
        <dc:title></dc:title>
      </cc:Work>
    </rdf:RDF>
  </metadata>
  <g
     inkscape:label="Layer 1"
     inkscape:groupmode="layer"
     id="layer1"
     transform="translate(-90.032717,-122.73817)">
    <path
       style="opacity:1;vector-effect:none;fill:none;fill-opacity:1;fill-rule:nonzero;stroke:#e62d25;stroke-width:0.76899999;stroke-linecap:round;stroke-linejoin:round;stroke-miterlimit:4;stroke-dasharray:none;stroke-dashoffset:0;stroke-opacity:1"
       d="m 171.96453,158.08667 a 38.273655,22.916363 0 0 1 -38.27366,22.91636 38.273655,22.916363 0 0 1 -38.273653,-22.91636 38.273655,22.916363 0 0 1 38.273653,-22.91636 38.273655,22.916363 0 0 1 38.27366,22.91636 z"
       id="path826"
       inkscape:connector-curvature="0" />
    <path
       style="opacity:1;vector-effect:none;fill:#080707;fill-opacity:1;fill-rule:nonzero;stroke:none;stroke-width:0.61519998;stroke-linecap:round;stroke-linejoin:round;stroke-miterlimit:4;stroke-dasharray:none;stroke-dashoffset:0;stroke-opacity:1"
       d="m 104.76964,158.28711 a 1.3363476,1.3363476 0 0 1 -1.33634,1.33635 1.3363476,1.3363476 0 0 1 -1.33635,-1.33635 1.3363476,1.3363476 0 0 1 1.33635,-1.33635 1.3363476,1.3363476 0 0 1 1.33634,1.33635 z"
       id="path828"
       inkscape:connector-curvature="0" />
    <path
       style="opacity:1;vector-effect:none;fill:#080707;fill-opacity:1;fill-rule:nonzero;stroke:none;stroke-width:0.61519998;stroke-linecap:round;stroke-linejoin:round;stroke-miterlimit:4;stroke-dasharray:none;stroke-dashoffset:0;stroke-opacity:1"
       d="m 142.45466,135.56384 a 1.3363476,1.3363476 0 0 1 -1.33634,1.33635 1.3363476,1.3363476 0 0 1 -1.33635,-1.33635 1.3363476,1.3363476 0 0 1 1.33635,-1.33635 1.3363476,1.3363476 0 0 1 1.33634,1.33635 z"
       id="path828-2"
       inkscape:connector-curvature="0" />
    <path
       style="opacity:1;vector-effect:none;fill:#080707;fill-opacity:1;fill-rule:nonzero;stroke:none;stroke-width:0.61519998;stroke-linecap:round;stroke-linejoin:round;stroke-miterlimit:4;stroke-dasharray:none;stroke-dashoffset:0;stroke-opacity:1"
       d="m 165.17257,158.15347 a 1.3363476,1.3363476 0 0 1 -1.33634,1.33635 1.3363476,1.3363476 0 0 1 -1.33635,-1.33635 1.3363476,1.3363476 0 0 1 1.33635,-1.33634 1.3363476,1.3363476 0 0 1 1.33634,1.33634 z"
       id="path828-9"
       inkscape:connector-curvature="0" />
    <path
       style="opacity:1;vector-effect:none;fill:#080707;fill-opacity:1;fill-rule:nonzero;stroke:none;stroke-width:0.61519998;stroke-linecap:round;stroke-linejoin:round;stroke-miterlimit:4;stroke-dasharray:none;stroke-dashoffset:0;stroke-opacity:1"
       d="m 163.56895,173.25421 a 1.3363476,1.3363476 0 0 1 -1.33635,1.33635 1.3363476,1.3363476 0 0 1 -1.33634,-1.33635 1.3363476,1.3363476 0 0 1 1.33634,-1.33635 1.3363476,1.3363476 0 0 1 1.33635,1.33635 z"
       id="path828-6"
       inkscape:connector-curvature="0" />
    <path
       style="fill:none;stroke:#000000;stroke-width:0.66500002;stroke-linecap:butt;stroke-linejoin:miter;stroke-miterlimit:4;stroke-dasharray:0.665, 0.665;stroke-dashoffset:0;stroke-opacity:1"
       d="m 103.56694,158.01984 37.41773,-22.71791 22.58428,22.45064 -1.06908,15.90254 z"
       id="path863"
       inkscape:connector-curvature="0" />
    <g
       aria-label="P"
       style="font-style:normal;font-variant:normal;font-weight:normal;font-stretch:normal;font-size:6.89257383px;line-height:1.25;font-family:sans-serif;-inkscape-font-specification:sans-serif;letter-spacing:0px;word-spacing:0px;fill:#000000;fill-opacity:1;stroke:none;stroke-width:0.17231435"
       id="text867">
      <path
         d="m 140.83233,128.29684 v 1.88805 h 0.85484 q 0.47454,0 0.73368,-0.24568 0.25915,-0.24568 0.25915,-0.70003 0,-0.45097 -0.25915,-0.69666 -0.25914,-0.24568 -0.73368,-0.24568 z m -0.67983,-0.55867 h 1.53467 q 0.84475,0 1.27553,0.38366 0.43415,0.38031 0.43415,1.11735 0,0.74378 -0.43415,1.12409 -0.43078,0.3803 -1.27553,0.3803 h -0.85484 v 2.01931 h -0.67983 z"
         style="stroke-width:0.17231435"
         id="path994"
         inkscape:connector-curvature="0" />
    </g>
    <g
       aria-label="F1"
       style="font-style:normal;font-variant:normal;font-weight:normal;font-stretch:normal;font-size:6.89257383px;line-height:1.25;font-family:sans-serif;-inkscape-font-specification:sans-serif;letter-spacing:0px;word-spacing:0px;fill:#000000;fill-opacity:1;stroke:none;stroke-width:0.17231435"
       id="text867-3">
      <path
         d="m 100.07388,149.76119 h 2.88761 v 0.57214 h -2.20778 v 1.48082 h 1.99238 v 0.57214 h -1.99238 v 2.39961 h -0.67983 z"
         style="stroke-width:0.17231435"
         id="path997"
         inkscape:connector-curvature="0" />
      <path
         d="m 103.92436,155.79253 h 0.7219 v -2.49166 l -0.78534,0.15751 v -0.40252 l 0.78097,-0.1575 h 0.44189 v 2.89417 h 0.7219 v 0.37189 h -1.88132 z"
         style="font-size:64.99999762%;baseline-shift:sub"
         id="path999"
         inkscape:connector-curvature="0" />
    </g>
    <g
       aria-label="F2"
       style="font-style:normal;font-variant:normal;font-weight:normal;font-stretch:normal;font-size:6.89257383px;line-height:1.25;font-family:sans-serif;-inkscape-font-specification:sans-serif;letter-spacing:0px;word-spacing:0px;fill:#000000;fill-opacity:1;stroke:none;stroke-width:0.17231435"
       id="text867-3-7">
      <path
         d="m 162.30666,149.20557 h 2.88761 v 0.57214 h -2.20778 v 1.48083 h 1.99238 v 0.57213 h -1.99238 v 2.39962 h -0.67983 z"
         style="stroke-width:0.17231435"
         id="path1002"
         inkscape:connector-curvature="0" />
      <path
         d="m 166.46122,155.23691 h 1.54224 v 0.37189 h -2.07383 v -0.37189 q 0.25158,-0.26032 0.68472,-0.69784 0.43533,-0.4397 0.54689,-0.56658 0.2122,-0.23845 0.29533,-0.40252 0.0853,-0.16625 0.0853,-0.32595 0,-0.26032 -0.18375,-0.42439 -0.18157,-0.16407 -0.47471,-0.16407 -0.20782,0 -0.4397,0.0722 -0.2297,0.0722 -0.49221,0.21876 v -0.44627 q 0.26688,-0.10719 0.49877,-0.16188 0.23188,-0.0547 0.42439,-0.0547 0.50752,0 0.80941,0.25376 0.30188,0.25376 0.30188,0.67815 0,0.20126 -0.0766,0.38283 -0.0744,0.17938 -0.27345,0.42439 -0.0547,0.0634 -0.34783,0.36752 -0.29313,0.30188 -0.8269,0.84659 z"
         style="font-size:4.48017263px;baseline-shift:sub;stroke-width:0.17231435"
         id="path1004"
         inkscape:connector-curvature="0" />
    </g>
    <g
       aria-label="P1"
       style="font-style:normal;font-variant:normal;font-weight:normal;font-stretch:normal;font-size:6.89257383px;line-height:1.25;font-family:sans-serif;-inkscape-font-specification:sans-serif;letter-spacing:0px;word-spacing:0px;fill:#000000;fill-opacity:1;stroke:none;stroke-width:0.17231435"
       id="text867-3-4">
      <path
         d="m 163.12013,175.42212 v 1.88805 h 0.85484 q 0.47454,0 0.73368,-0.24568 0.25914,-0.24569 0.25914,-0.70003 0,-0.45098 -0.25914,-0.69666 -0.25914,-0.24568 -0.73368,-0.24568 z m -0.67984,-0.55868 h 1.53468 q 0.84474,0 1.27553,0.38367 0.43415,0.3803 0.43415,1.11735 0,0.74378 -0.43415,1.12408 -0.43079,0.3803 -1.27553,0.3803 h -0.85484 v 2.01931 h -0.67984 z"
         style="stroke-width:0.17231435"
         id="path1007"
         inkscape:connector-curvature="0" />
      <path
         d="m 166.47925,180.89478 h 0.7219 v -2.49166 l -0.78534,0.15751 v -0.40252 l 0.78096,-0.15751 h 0.4419 v 2.89418 h 0.7219 v 0.37189 h -1.88132 z"
         style="font-size:4.48017263px;baseline-shift:sub;stroke-width:0.17231435"
         id="path1009"
         inkscape:connector-curvature="0" />
    </g>
    <g
       id="g987"
       transform="translate(-7.4083335,1.5875)">
      <g
         aria-label="PF1 + PF2 = P1F1 + P1F2"
         style="font-style:normal;font-variant:normal;font-weight:normal;font-stretch:normal;font-size:6.89257383px;line-height:1.25;font-family:sans-serif;-inkscape-font-specification:sans-serif;letter-spacing:0px;word-spacing:0px;fill:#e62a21;fill-opacity:1;stroke:none;stroke-width:0.17231435"
         id="text867-3-1">
        <path
           d="m 104.32084,186.91471 v 1.88806 h 0.85484 q 0.47454,0 0.73368,-0.24568 0.25915,-0.24569 0.25915,-0.70003 0,-0.45098 -0.25915,-0.69666 -0.25914,-0.24569 -0.73368,-0.24569 z m -0.67983,-0.55867 h 1.53467 q 0.84475,0 1.27553,0.38367 0.43415,0.3803 0.43415,1.11735 0,0.74378 -0.43415,1.12408 -0.43078,0.3803 -1.27553,0.3803 h -0.85484 v 2.01931 h -0.67983 z"
           style="fill:#e62a21;fill-opacity:1;stroke-width:0.17231435"
           id="path1012"
           inkscape:connector-curvature="0" />
        <path
           d="m 107.80078,186.35604 h 2.88761 v 0.57214 h -2.20777 v 1.48082 h 1.99238 v 0.57214 h -1.99238 v 2.39961 h -0.67984 z"
           style="fill:#e62a21;fill-opacity:1;stroke-width:0.17231435"
           id="path1014"
           inkscape:connector-curvature="0" />
        <path
           d="m 111.65127,192.38738 h 0.7219 v -2.49166 l -0.78534,0.15751 v -0.40252 l 0.78097,-0.15751 h 0.44189 v 2.89418 h 0.7219 v 0.37189 h -1.88132 z"
           style="font-size:64.99999762%;baseline-shift:sub;fill:#e62a21;fill-opacity:1"
           id="path1016"
           inkscape:connector-curvature="0" />
        <path
           d="m 118.54485,187.05943 v 1.87459 h 1.87459 v 0.57214 h -1.87459 v 1.87459 h -0.56541 v -1.87459 h -1.87459 v -0.57214 h 1.87459 v -1.87459 z"
           style="fill:#e62a21;fill-opacity:1;stroke-width:0.17231435"
           id="path1018"
           inkscape:connector-curvature="0" />
        <path
           d="m 124.70038,186.91471 v 1.88806 h 0.85484 q 0.47453,0 0.73368,-0.24568 0.25914,-0.24569 0.25914,-0.70003 0,-0.45098 -0.25914,-0.69666 -0.25915,-0.24569 -0.73368,-0.24569 z m -0.67984,-0.55867 h 1.53468 q 0.84474,0 1.27553,0.38367 0.43415,0.3803 0.43415,1.11735 0,0.74378 -0.43415,1.12408 -0.43079,0.3803 -1.27553,0.3803 h -0.85484 v 2.01931 h -0.67984 z"
           style="fill:#e62a21;fill-opacity:1;stroke-width:0.17231435"
           id="path1020"
           inkscape:connector-curvature="0" />
        <path
           d="m 128.18032,186.35604 h 2.88761 v 0.57214 h -2.20778 v 1.48082 h 1.99239 v 0.57214 h -1.99239 v 2.39961 h -0.67983 z"
           style="fill:#e62a21;fill-opacity:1;stroke-width:0.17231435"
           id="path1022"
           inkscape:connector-curvature="0" />
        <path
           d="m 132.33488,192.38738 h 1.54225 v 0.37189 h -2.07383 v -0.37189 q 0.25157,-0.26032 0.68471,-0.69784 0.43533,-0.43971 0.5469,-0.56659 0.21219,-0.23844 0.29532,-0.40251 0.0853,-0.16626 0.0853,-0.32595 0,-0.26032 -0.18376,-0.42439 -0.18157,-0.16407 -0.47471,-0.16407 -0.20782,0 -0.4397,0.0722 -0.2297,0.0722 -0.49221,0.21876 v -0.44627 q 0.26689,-0.10719 0.49877,-0.16188 0.23189,-0.0547 0.42439,-0.0547 0.50752,0 0.80941,0.25376 0.30189,0.25376 0.30189,0.67815 0,0.20126 -0.0766,0.38283 -0.0744,0.17938 -0.27345,0.42439 -0.0547,0.0634 -0.34782,0.36751 -0.29314,0.30189 -0.82691,0.8466 z"
           style="font-size:64.99999762%;baseline-shift:sub;fill:#e62a21;fill-opacity:1"
           id="path1024"
           inkscape:connector-curvature="0" />
        <path
           d="m 136.48439,188.25082 h 4.31459 v 0.56541 h -4.31459 z m 0,1.37313 h 4.31459 v 0.57214 h -4.31459 z"
           style="fill:#e62a21;fill-opacity:1;stroke-width:0.17231435"
           id="path1026"
           inkscape:connector-curvature="0" />
        <path
           d="m 145.07991,186.91471 v 1.88806 h 0.85484 q 0.47454,0 0.73369,-0.24568 0.25914,-0.24569 0.25914,-0.70003 0,-0.45098 -0.25914,-0.69666 -0.25915,-0.24569 -0.73369,-0.24569 z m -0.67983,-0.55867 h 1.53467 q 0.84475,0 1.27553,0.38367 0.43415,0.3803 0.43415,1.11735 0,0.74378 -0.43415,1.12408 -0.43078,0.3803 -1.27553,0.3803 h -0.85484 v 2.01931 h -0.67983 z"
           style="fill:#e62a21;fill-opacity:1;stroke-width:0.17231435"
           id="path1028"
           inkscape:connector-curvature="0" />
        <path
           d="m 148.43903,192.38738 h 0.72191 v -2.49166 l -0.78535,0.15751 v -0.40252 l 0.78097,-0.15751 h 0.44189 v 2.89418 h 0.72191 v 0.37189 h -1.88133 z"
           style="font-size:64.99999762%;baseline-shift:sub;fill:#e62a21;fill-opacity:1"
           id="path1030"
           inkscape:connector-curvature="0" />
        <path
           d="m 151.41246,186.35604 h 2.88762 v 0.57214 h -2.20778 v 1.48082 h 1.99238 v 0.57214 h -1.99238 v 2.39961 h -0.67984 z"
           style="fill:#e62a21;fill-opacity:1;stroke-width:0.17231435"
           id="path1032"
           inkscape:connector-curvature="0" />
        <path
           d="m 155.26295,192.38738 h 0.72191 v -2.49166 l -0.78535,0.15751 v -0.40252 l 0.78097,-0.15751 h 0.44189 v 2.89418 h 0.7219 v 0.37189 h -1.88132 z"
           style="font-size:64.99999762%;baseline-shift:sub;fill:#e62a21;fill-opacity:1"
           id="path1034"
           inkscape:connector-curvature="0" />
        <path
           d="m 162.15654,187.05943 v 1.87459 h 1.87459 v 0.57214 h -1.87459 v 1.87459 h -0.56541 v -1.87459 h -1.87459 v -0.57214 h 1.87459 v -1.87459 z"
           style="fill:#e62a21;fill-opacity:1;stroke-width:0.17231435"
           id="path1036"
           inkscape:connector-curvature="0" />
        <path
           d="m 168.31206,186.91471 v 1.88806 h 0.85484 q 0.47454,0 0.73368,-0.24568 0.25915,-0.24569 0.25915,-0.70003 0,-0.45098 -0.25915,-0.69666 -0.25914,-0.24569 -0.73368,-0.24569 z m -0.67983,-0.55867 h 1.53467 q 0.84474,0 1.27553,0.38367 0.43415,0.3803 0.43415,1.11735 0,0.74378 -0.43415,1.12408 -0.43079,0.3803 -1.27553,0.3803 h -0.85484 v 2.01931 h -0.67983 z"
           style="fill:#e62a21;fill-opacity:1;stroke-width:0.17231435"
           id="path1038"
           inkscape:connector-curvature="0" />
        <path
           d="m 171.67118,192.38738 h 0.7219 v -2.49166 l -0.78534,0.15751 v -0.40252 l 0.78097,-0.15751 h 0.44189 v 2.89418 h 0.7219 v 0.37189 h -1.88132 z"
           style="font-size:64.99999762%;baseline-shift:sub;fill:#e62a21;fill-opacity:1"
           id="path1040"
           inkscape:connector-curvature="0" />
        <path
           d="m 174.64462,186.35604 h 2.88761 v 0.57214 h -2.20778 v 1.48082 h 1.99238 v 0.57214 h -1.99238 v 2.39961 h -0.67983 z"
           style="fill:#e62a21;fill-opacity:1;stroke-width:0.17231435"
           id="path1042"
           inkscape:connector-curvature="0" />
        <path
           d="m 178.79917,192.38738 h 1.54225 v 0.37189 h -2.07383 v -0.37189 q 0.25157,-0.26032 0.68471,-0.69784 0.43533,-0.43971 0.5469,-0.56659 0.2122,-0.23844 0.29532,-0.40251 0.0853,-0.16626 0.0853,-0.32595 0,-0.26032 -0.18376,-0.42439 -0.18157,-0.16407 -0.4747,-0.16407 -0.20782,0 -0.43971,0.0722 -0.22969,0.0722 -0.4922,0.21876 v -0.44627 q 0.26688,-0.10719 0.49877,-0.16188 0.23188,-0.0547 0.42439,-0.0547 0.50752,0 0.8094,0.25376 0.30189,0.25376 0.30189,0.67815 0,0.20126 -0.0766,0.38283 -0.0744,0.17938 -0.27344,0.42439 -0.0547,0.0634 -0.34783,0.36751 -0.29314,0.30189 -0.82691,0.8466 z"
           style="font-size:64.99999762%;baseline-shift:sub;fill:#e62a21;fill-opacity:1"
           id="path1044"
           inkscape:connector-curvature="0" />
      </g>
      <path
         inkscape:connector-curvature="0"
         id="path946"
         d="m 103.49989,184.99816 v 0.56641 h 9.28711 v -0.56641 z"
         style="color:#000000;font-style:normal;font-variant:normal;font-weight:normal;font-stretch:normal;font-size:medium;line-height:normal;font-family:sans-serif;font-variant-ligatures:normal;font-variant-position:normal;font-variant-caps:normal;font-variant-numeric:normal;font-variant-alternates:normal;font-feature-settings:normal;text-indent:0;text-align:start;text-decoration:none;text-decoration-line:none;text-decoration-style:solid;text-decoration-color:#000000;letter-spacing:normal;word-spacing:normal;text-transform:none;writing-mode:lr-tb;direction:ltr;text-orientation:mixed;dominant-baseline:auto;baseline-shift:baseline;text-anchor:start;white-space:normal;shape-padding:0;clip-rule:nonzero;display:inline;overflow:visible;visibility:visible;opacity:1;isolation:auto;mix-blend-mode:normal;color-interpolation:sRGB;color-interpolation-filters:linearRGB;solid-color:#000000;solid-opacity:1;vector-effect:none;fill:#e62a21;fill-opacity:1;fill-rule:nonzero;stroke:none;stroke-width:0.565;stroke-linecap:butt;stroke-linejoin:miter;stroke-miterlimit:4;stroke-dasharray:none;stroke-dashoffset:0;stroke-opacity:1;color-rendering:auto;image-rendering:auto;shape-rendering:auto;text-rendering:auto;enable-background:accumulate" />
      <path
         inkscape:connector-curvature="0"
         id="path946-0"
         d="m 123.78221,185.19933 v 0.56446 h 9.8164 v -0.56446 z"
         style="color:#000000;font-style:normal;font-variant:normal;font-weight:normal;font-stretch:normal;font-size:medium;line-height:normal;font-family:sans-serif;font-variant-ligatures:normal;font-variant-position:normal;font-variant-caps:normal;font-variant-numeric:normal;font-variant-alternates:normal;font-feature-settings:normal;text-indent:0;text-align:start;text-decoration:none;text-decoration-line:none;text-decoration-style:solid;text-decoration-color:#000000;letter-spacing:normal;word-spacing:normal;text-transform:none;writing-mode:lr-tb;direction:ltr;text-orientation:mixed;dominant-baseline:auto;baseline-shift:baseline;text-anchor:start;white-space:normal;shape-padding:0;clip-rule:nonzero;display:inline;overflow:visible;visibility:visible;opacity:1;isolation:auto;mix-blend-mode:normal;color-interpolation:sRGB;color-interpolation-filters:linearRGB;solid-color:#000000;solid-opacity:1;vector-effect:none;fill:#e62a21;fill-opacity:1;fill-rule:nonzero;stroke:none;stroke-width:0.56500006;stroke-linecap:butt;stroke-linejoin:miter;stroke-miterlimit:4;stroke-dasharray:none;stroke-dashoffset:0;stroke-opacity:1;color-rendering:auto;image-rendering:auto;shape-rendering:auto;text-rendering:auto;enable-background:accumulate" />
      <path
         inkscape:connector-curvature="0"
         id="path963"
         d="m 144.41993,185.19933 v 0.56446 h 12.99024 v -0.56446 z"
         style="color:#000000;font-style:normal;font-variant:normal;font-weight:normal;font-stretch:normal;font-size:medium;line-height:normal;font-family:sans-serif;font-variant-ligatures:normal;font-variant-position:normal;font-variant-caps:normal;font-variant-numeric:normal;font-variant-alternates:normal;font-feature-settings:normal;text-indent:0;text-align:start;text-decoration:none;text-decoration-line:none;text-decoration-style:solid;text-decoration-color:#000000;letter-spacing:normal;word-spacing:normal;text-transform:none;writing-mode:lr-tb;direction:ltr;text-orientation:mixed;dominant-baseline:auto;baseline-shift:baseline;text-anchor:start;white-space:normal;shape-padding:0;clip-rule:nonzero;display:inline;overflow:visible;visibility:visible;opacity:1;isolation:auto;mix-blend-mode:normal;color-interpolation:sRGB;color-interpolation-filters:linearRGB;solid-color:#000000;solid-opacity:1;vector-effect:none;fill:#e62a21;fill-opacity:1;fill-rule:nonzero;stroke:none;stroke-width:0.56500006;stroke-linecap:butt;stroke-linejoin:miter;stroke-miterlimit:4;stroke-dasharray:none;stroke-dashoffset:0;stroke-opacity:1;color-rendering:auto;image-rendering:auto;shape-rendering:auto;text-rendering:auto;enable-background:accumulate" />
      <path
         inkscape:connector-curvature="0"
         id="path965"
         d="m 167.17311,185.19933 v 0.56446 h 12.99218 v -0.56446 z"
         style="color:#000000;font-style:normal;font-variant:normal;font-weight:normal;font-stretch:normal;font-size:medium;line-height:normal;font-family:sans-serif;font-variant-ligatures:normal;font-variant-position:normal;font-variant-caps:normal;font-variant-numeric:normal;font-variant-alternates:normal;font-feature-settings:normal;text-indent:0;text-align:start;text-decoration:none;text-decoration-line:none;text-decoration-style:solid;text-decoration-color:#000000;letter-spacing:normal;word-spacing:normal;text-transform:none;writing-mode:lr-tb;direction:ltr;text-orientation:mixed;dominant-baseline:auto;baseline-shift:baseline;text-anchor:start;white-space:normal;shape-padding:0;clip-rule:nonzero;display:inline;overflow:visible;visibility:visible;opacity:1;isolation:auto;mix-blend-mode:normal;color-interpolation:sRGB;color-interpolation-filters:linearRGB;solid-color:#000000;solid-opacity:1;vector-effect:none;fill:#e62a21;fill-opacity:1;fill-rule:nonzero;stroke:none;stroke-width:0.56500006;stroke-linecap:butt;stroke-linejoin:miter;stroke-miterlimit:4;stroke-dasharray:none;stroke-dashoffset:0;stroke-opacity:1;color-rendering:auto;image-rendering:auto;shape-rendering:auto;text-rendering:auto;enable-background:accumulate" />
    </g>
  </g>
</svg>
